<svg width="80" height="48" viewBox="0 0 80 48" fill="none" xmlns="http://www.w3.org/2000/svg">
<rect x="2" y="2" width="76" height="44" rx="14" fill="white"/>
<path fill-rule="evenodd" clip-rule="evenodd" d="M29.2766 18C29.2766 17.1716 28.605 16.5 27.7766 16.5C26.9481 16.5 26.2766 17.1716 26.2766 18V22.3235H21.6001C20.7717 22.3235 20.1001 22.9951 20.1001 23.8235C20.1001 24.652 20.7717 25.3235 21.6001 25.3235H26.2766V30C26.2766 30.8284 26.9481 31.5 27.7766 31.5C28.605 31.5 29.2766 30.8284 29.2766 30V25.3235H33.6001C34.4285 25.3235 35.1001 24.652 35.1001 23.8235C35.1001 22.9951 34.4285 22.3235 33.6001 22.3235H29.2766V18Z" fill="#7CC5EE"/>
<path d="M44.6945 32.1421C44.3023 32.1421 43.9188 32.2523 43.5927 32.4588C43.2665 32.6652 43.0123 32.9587 42.8622 33.302C42.7121 33.6453 42.6728 34.0231 42.7493 34.3876C42.8258 34.7521 43.0147 35.0869 43.2921 35.3497C43.5695 35.6124 43.9229 35.7914 44.3076 35.8639C44.6923 35.9364 45.0911 35.8992 45.4535 35.757C45.8159 35.6148 46.1257 35.3739 46.3436 35.0649C46.5616 34.756 46.6779 34.3927 46.6779 34.0211C46.6779 33.5227 46.4689 33.0448 46.097 32.6924C45.725 32.3401 45.2206 32.1421 44.6945 32.1421ZM58.5779 28.3842H42.7112C42.3605 28.3842 42.0242 28.2522 41.7763 28.0173C41.5283 27.7824 41.389 27.4638 41.389 27.1316C41.389 26.7994 41.5283 26.4808 41.7763 26.2458C42.0242 26.0109 42.3605 25.879 42.7112 25.879H53.9382C54.7996 25.8764 55.637 25.6094 56.3247 25.118C57.0124 24.6266 57.5135 23.9372 57.7528 23.1532L59.8485 16.2011C59.9046 16.0148 59.9142 15.8187 59.8767 15.6283C59.8392 15.4378 59.7556 15.2582 59.6325 15.1036C59.5094 14.9489 59.35 14.8234 59.167 14.7369C58.984 14.6505 58.7824 14.6054 58.5779 14.6053H42.3674C42.0935 13.875 41.5884 13.2426 40.9211 12.7942C40.2538 12.3459 39.4568 12.1035 38.6388 12.1H37.4223C37.0716 12.1 36.7353 12.232 36.4874 12.4669C36.2394 12.7018 36.1001 13.0204 36.1001 13.3526C36.1001 13.6849 36.2394 14.0035 36.4874 14.2384C36.7353 14.4733 37.0716 14.6053 37.4223 14.6053H38.6401C38.9272 14.6061 39.2063 14.6951 39.4356 14.8588C39.6649 15.0225 39.8321 15.2522 39.9121 15.5134L40.117 16.1961V16.2024L42.2868 23.395C41.2768 23.4973 40.3468 23.9627 39.6883 24.6954C39.0298 25.428 38.6931 26.372 38.7475 27.3329C38.8019 28.2938 39.2433 29.1983 39.9808 29.86C40.7182 30.5217 41.6955 30.8901 42.7112 30.8895H58.5779C58.9286 30.8895 59.2649 30.7575 59.5128 30.5226C59.7608 30.2877 59.9001 29.9691 59.9001 29.6368C59.9001 29.3046 59.7608 28.986 59.5128 28.7511C59.2649 28.5162 58.9286 28.3842 58.5779 28.3842ZM55.2723 32.1421C54.8801 32.1421 54.4966 32.2523 54.1704 32.4588C53.8443 32.6652 53.5901 32.9587 53.44 33.302C53.2898 33.6453 53.2506 34.0231 53.3271 34.3876C53.4036 34.7521 53.5925 35.0869 53.8699 35.3497C54.1473 35.6124 54.5007 35.7914 54.8854 35.8639C55.2701 35.9364 55.6689 35.8992 56.0313 35.757C56.3937 35.6148 56.7035 35.3739 56.9214 35.0649C57.1393 34.756 57.2557 34.3927 57.2557 34.0211C57.2557 33.5227 57.0467 33.0448 56.6747 32.6924C56.3028 32.3401 55.7983 32.1421 55.2723 32.1421Z" fill="#7CC5EE"/>
<rect x="2" y="2" width="76" height="44" rx="14" stroke="#7CC5EE" stroke-width="4"/>
</svg>
